<svg xmlns="http://www.w3.org/2000/svg" fill="none" viewBox="0 0 30 30">
  <g filter="url(#a)">
    <path fill="url(#b)" fill-rule="evenodd" d="M29.9 11.3c-.2-.7-.8-1.2-1.5-1.3l-8-1.2-3.7-7.7A2 2 0 0 0 15 0a2 2 0 0 0-1.7 1L9.7 8.9 1.6 10c-.7.1-1.3.6-1.5 1.3-.2.7 0 1.4.4 2l6 6L5 27.7a2 2 0 0 0 .8 1.9c.3.2.7.3 1.1.3.3 0 .6 0 1-.2l7.1-4 7.2 4a2 2 0 0 0 2-.1 2 2 0 0 0 .8-1.9l-1.4-8.6 5.9-6c.5-.5.6-1.2.4-1.9Z" clip-rule="evenodd"/>
  </g>
  <defs>
    <linearGradient id="b" x1="0" x2="0" y1="0" y2="30" gradientUnits="userSpaceOnUse">
      <stop stop-color="#FFCD69"/>
      <stop offset="1" stop-color="#FDCE71"/>
    </linearGradient>
    <filter id="a" width="30" height="30" x="0" y="0" color-interpolation-filters="sRGB" filterUnits="userSpaceOnUse">
      <feFlood flood-opacity="0" result="BackgroundImageFix"/>
      <feBlend in="SourceGraphic" in2="BackgroundImageFix" result="shape"/>
      <feColorMatrix in="SourceAlpha" result="hardAlpha" values="0 0 0 0 0 0 0 0 0 0 0 0 0 0 0 0 0 0 127 0"/>
      <feOffset dy="-1"/>
      <feComposite in2="hardAlpha" k2="-1" k3="1" operator="arithmetic"/>
      <feColorMatrix values="0 0 0 0 0 0 0 0 0 0 0 0 0 0 0 0 0 0 0.1 0"/>
      <feBlend in2="shape" result="effect1_innerShadow"/>
    </filter>
  </defs>
</svg>
